ffmpeg started on 2025-07-06 at 18:09:58
Report written to "D:\Convert\FFMetrics\reports\psnr_report-6.txt"
Log level: 32
Command line:
ffmpeg -hide_banner -nostdin -i "G:\\\xc0\xed\xe8\xec\xe5\\\xce\xed\xe3\xee\xe8\xed\xe3\xe8\\!_37_\xc7\xe8\xec\xe0_2025\\JamClub\\\xc3\xee\xeb\xf3\xe1\xe0\xff \xf8\xea\xe0\xf2\xf3\xeb\xea\xe0\\JamClub_Ao_no_Hako_19_1080p_HEVC.mkv" -i "G:\\\xc0\xed\xe8\xec\xe5\\\xce\xed\xe3\xee\xe8\xed\xe3\xe8\\!_37_\xc7\xe8\xec\xe0_2025\\JamClub\\\xc3\xee\xeb\xf3\xe1\xe0\xff \xf8\xea\xe0\xf2\xf3\xeb\xea\xe0\\JamClub_Ao_no_Hako_19_1080p.mp4" -lavfi "[0:v]settb=AVTB,setpts=PTS-STARTPTS,format=pix_fmts=yuv420p10,fps=24000/1001,scale=1920:1080:flags=bicubic[main];[1:v]settb=AVTB,setpts=PTS-STARTPTS,format=pix_fmts=yuv420p,fps=24000/1001,scale=1920:1080:flags=bicubic[ref];[main][ref]psnr=eof_action=endall:stats_file='D\\:/Convert/FFMetrics/logs/psnr_logfile-6.txt'" -f null -
Input #0, matroska,webm, from 'G:\Аниме\Онгоинги\!_37_Зима_2025\JamClub\Голубая шкатулка\JamClub_Ao_no_Hako_19_1080p_HEVC.mkv':
  Metadata:
    COMPATIBLE_BRANDS: isomiso2avc1mp41
    MAJOR_BRAND     : isom
    MINOR_VERSION   : 512
    ENCODER         : Lavf61.7.100
  Duration: 00:23:59.25, start: -0.001000, bitrate: 1190 kb/s
  Stream #0:0: Video: hevc (Main 10), yuv420p10le(tv, bt709, progressive), 1920x1080 [SAR 1:1 DAR 16:9], 23.98 fps, 23.98 tbr, 1k tbn (default)
      Metadata:
        HANDLER_NAME    : VideoHandler
        VENDOR_ID       : [0][0][0][0]
        ENCODER         : Lavc61.19.100 libx265
        BPS             : 993808
        DURATION        : 00:23:59.187708333
        NUMBER_OF_FRAMES: 34507
        NUMBER_OF_BYTES : 178784586
        _STATISTICS_WRITING_APP: mkvpropedit v66.0.0 ('Josie') 64-bit
        _STATISTICS_WRITING_DATE_UTC: 2025-07-06 10:27:53
        _STATISTICS_TAGS: BPS DURATION NUMBER_OF_FRAMES NUMBER_OF_BYTES
  Stream #0:1(eng): Audio: aac (LC), 48000 Hz, stereo, fltp (default)
      Metadata:
        HANDLER_NAME    : SoundHandler
        VENDOR_ID       : [0][0][0][0]
        ENCODER         : Lavc61.19.100 aac
        BPS             : 192872
        DURATION        : 00:23:59.213000000
        NUMBER_OF_FRAMES: 67464
        NUMBER_OF_BYTES : 34698136
        _STATISTICS_WRITING_APP: mkvpropedit v66.0.0 ('Josie') 64-bit
        _STATISTICS_WRITING_DATE_UTC: 2025-07-06 10:27:53
        _STATISTICS_TAGS: BPS DURATION NUMBER_OF_FRAMES NUMBER_OF_BYTES
Input #1, mov,mp4,m4a,3gp,3g2,mj2, from 'G:\Аниме\Онгоинги\!_37_Зима_2025\JamClub\Голубая шкатулка\JamClub_Ao_no_Hako_19_1080p.mp4':
  Metadata:
    major_brand     : isom
    minor_version   : 512
    compatible_brands: isomiso2avc1mp41
    encoder         : Lavf60.16.100
  Duration: 00:23:59.23, start: 0.000000, bitrate: 4531 kb/s
  Stream #1:0[0x1](und): Video: h264 (High) (avc1 / 0x31637661), yuv420p(progressive), 1920x1080 [SAR 1:1 DAR 16:9], 4333 kb/s, 23.98 fps, 23.98 tbr, 90k tbn (default)
      Metadata:
        handler_name    : VideoHandler
        vendor_id       : [0][0][0][0]
  Stream #1:1[0x2](eng): Audio: aac (LC) (mp4a / 0x6134706D), 48000 Hz, stereo, fltp, 191 kb/s (default)
      Metadata:
        handler_name    : SoundHandler
        vendor_id       : [0][0][0][0]
Stream mapping:
  Stream #0:0 (hevc) -> settb:default
  Stream #1:0 (h264) -> settb:default
  psnr:default -> Stream #0:0 (wrapped_avframe)
  Stream #0:1 -> #0:1 (aac (native) -> pcm_s16le (native))
Output #0, null, to 'pipe:':
  Metadata:
    COMPATIBLE_BRANDS: isomiso2avc1mp41
    MAJOR_BRAND     : isom
    MINOR_VERSION   : 512
    encoder         : Lavf61.7.100
  Stream #0:0: Video: wrapped_avframe, yuv420p10le(tv, bt709, progressive), 1920x1080 [SAR 1:1 DAR 16:9], q=2-31, 200 kb/s, 23.98 fps, 23.98 tbn
      Metadata:
        encoder         : Lavc61.19.100 wrapped_avframe
  Stream #0:1(eng): Audio: pcm_s16le, 48000 Hz, stereo, s16, 1536 kb/s (default)
      Metadata:
        HANDLER_NAME    : SoundHandler
        VENDOR_ID       : [0][0][0][0]
        _STATISTICS_TAGS: BPS DURATION NUMBER_OF_FRAMES NUMBER_OF_BYTES
        BPS             : 192872
        DURATION        : 00:23:59.213000000
        NUMBER_OF_FRAMES: 67464
        NUMBER_OF_BYTES : 34698136
        _STATISTICS_WRITING_APP: mkvpropedit v66.0.0 ('Josie') 64-bit
        _STATISTICS_WRITING_DATE_UTC: 2025-07-06 10:27:53
        encoder         : Lavc61.19.100 pcm_s16le
frame=  104 fps=0.0 q=-0.0 size=N/A time=00:00:04.33 bitrate=N/A speed=8.41x    frame=  258 fps=251 q=-0.0 size=N/A time=00:00:10.76 bitrate=N/A speed=10.5x    frame=  444 fps=289 q=-0.0 size=N/A time=00:00:18.51 bitrate=N/A speed=  12x    frame=  694 fps=336 q=-0.0 size=N/A time=00:00:28.94 bitrate=N/A speed=  14x    frame=  934 fps=362 q=-0.0 size=N/A time=00:00:38.95 bitrate=N/A speed=15.1x    frame= 1187 fps=384 q=-0.0 size=N/A time=00:00:49.50 bitrate=N/A speed=  16x    frame= 1446 fps=402 q=-0.0 size=N/A time=00:01:00.31 bitrate=N/A speed=16.8x    frame= 1673 fps=405 q=-0.0 size=N/A time=00:01:09.77 bitrate=N/A speed=16.9x    frame= 1902 fps=410 q=-0.0 size=N/A time=00:01:19.32 bitrate=N/A speed=17.1x    frame= 2105 fps=409 q=-0.0 size=N/A time=00:01:27.79 bitrate=N/A speed=  17x    frame= 2352 fps=415 q=-0.0 size=N/A time=00:01:38.09 bitrate=N/A speed=17.3x    frame= 2555 fps=413 q=-0.0 size=N/A time=00:01:46.56 bitrate=N/A speed=17.2x    frame= 2781 fps=415 q=-0.0 size=N/A time=00:01:55.99 bitrate=N/A speed=17.3x    frame= 3031 fps=420 q=-0.0 size=N/A time=00:02:06.41 bitrate=N/A speed=17.5x    frame= 3270 fps=423 q=-0.0 size=N/A time=00:02:16.38 bitrate=N/A speed=17.6x    frame= 3483 fps=422 q=-0.0 size=N/A time=00:02:25.27 bitrate=N/A speed=17.6x    frame= 3723 fps=425 q=-0.0 size=N/A time=00:02:35.28 bitrate=N/A speed=17.7x    frame= 3988 fps=430 q=-0.0 size=N/A time=00:02:46.33 bitrate=N/A speed=17.9x    frame= 4241 fps=433 q=-0.0 size=N/A time=00:02:56.88 bitrate=N/A speed=  18x    frame= 4472 fps=434 q=-0.0 size=N/A time=00:03:06.51 bitrate=N/A speed=18.1x    frame= 4703 fps=435 q=-0.0 size=N/A time=00:03:16.15 bitrate=N/A speed=18.1x    frame= 4946 fps=436 q=-0.0 size=N/A time=00:03:26.28 bitrate=N/A speed=18.2x    frame= 5225 fps=440 q=-0.0 size=N/A time=00:03:37.92 bitrate=N/A speed=18.4x    frame= 5450 fps=440 q=-0.0 size=N/A time=00:03:47.31 bitrate=N/A speed=18.4x    frame= 5719 fps=444 q=-0.0 size=N/A time=00:03:58.52 bitrate=N/A speed=18.5x    frame= 5959 fps=445 q=-0.0 size=N/A time=00:04:08.53 bitrate=N/A speed=18.6x    frame= 6189 fps=445 q=-0.0 size=N/A time=00:04:18.13 bitrate=N/A speed=18.5x    frame= 6433 fps=446 q=-0.0 size=N/A time=00:04:28.30 bitrate=N/A speed=18.6x    frame= 6666 fps=446 q=-0.0 size=N/A time=00:04:38.02 bitrate=N/A speed=18.6x    frame= 6929 fps=448 q=-0.0 size=N/A time=00:04:48.99 bitrate=N/A speed=18.7x    frame= 7186 fps=450 q=-0.0 size=N/A time=00:04:59.71 bitrate=N/A speed=18.8x    frame= 7390 fps=448 q=-0.0 size=N/A time=00:05:08.22 bitrate=N/A speed=18.7x    frame= 7640 fps=449 q=-0.0 size=N/A time=00:05:18.65 bitrate=N/A speed=18.7x    frame= 7910 fps=451 q=-0.0 size=N/A time=00:05:29.91 bitrate=N/A speed=18.8x    frame= 8172 fps=453 q=-0.0 size=N/A time=00:05:40.84 bitrate=N/A speed=18.9x    frame= 8444 fps=455 q=-0.0 size=N/A time=00:05:52.18 bitrate=N/A speed=  19x    frame= 8699 fps=456 q=-0.0 size=N/A time=00:06:02.82 bitrate=N/A speed=  19x    frame= 8933 fps=456 q=-0.0 size=N/A time=00:06:12.58 bitrate=N/A speed=  19x    frame= 9165 fps=456 q=-0.0 size=N/A time=00:06:22.25 bitrate=N/A speed=  19x    frame= 9408 fps=456 q=-0.0 size=N/A time=00:06:32.39 bitrate=N/A speed=  19x    frame= 9649 fps=457 q=-0.0 size=N/A time=00:06:42.44 bitrate=N/A speed=  19x    frame= 9903 fps=457 q=-0.0 size=N/A time=00:06:53.03 bitrate=N/A speed=19.1x    frame=10147 fps=458 q=-0.0 size=N/A time=00:07:03.21 bitrate=N/A speed=19.1x    frame=10384 fps=458 q=-0.0 size=N/A time=00:07:13.09 bitrate=N/A speed=19.1x    frame=10625 fps=458 q=-0.0 size=N/A time=00:07:23.15 bitrate=N/A speed=19.1x    frame=10885 fps=459 q=-0.0 size=N/A time=00:07:33.99 bitrate=N/A speed=19.1x    frame=11118 fps=459 q=-0.0 size=N/A time=00:07:43.71 bitrate=N/A speed=19.1x    frame=11358 fps=459 q=-0.0 size=N/A time=00:07:53.72 bitrate=N/A speed=19.1x    frame=11620 fps=460 q=-0.0 size=N/A time=00:08:04.65 bitrate=N/A speed=19.2x    frame=11868 fps=460 q=-0.0 size=N/A time=00:08:14.99 bitrate=N/A speed=19.2x    frame=12107 fps=460 q=-0.0 size=N/A time=00:08:24.96 bitrate=N/A speed=19.2x    frame=12354 fps=461 q=-0.0 size=N/A time=00:08:35.26 bitrate=N/A speed=19.2x    frame=12608 fps=461 q=-0.0 size=N/A time=00:08:45.85 bitrate=N/A speed=19.2x    frame=12812 fps=460 q=-0.0 size=N/A time=00:08:54.36 bitrate=N/A speed=19.2x    frame=13015 fps=459 q=-0.0 size=N/A time=00:09:02.83 bitrate=N/A speed=19.1x    frame=13266 fps=460 q=-0.0 size=N/A time=00:09:13.30 bitrate=N/A speed=19.2x    frame=13508 fps=460 q=-0.0 size=N/A time=00:09:23.39 bitrate=N/A speed=19.2x    frame=13732 fps=459 q=-0.0 size=N/A time=00:09:32.73 bitrate=N/A speed=19.2x    frame=13961 fps=459 q=-0.0 size=N/A time=00:09:42.29 bitrate=N/A speed=19.1x    frame=14205 fps=459 q=-0.0 size=N/A time=00:09:52.46 bitrate=N/A speed=19.2x    frame=14454 fps=460 q=-0.0 size=N/A time=00:10:02.85 bitrate=N/A speed=19.2x    frame=14705 fps=460 q=-0.0 size=N/A time=00:10:13.32 bitrate=N/A speed=19.2x    frame=14983 fps=461 q=-0.0 size=N/A time=00:10:24.91 bitrate=N/A speed=19.2x    frame=15240 fps=462 q=-0.0 size=N/A time=00:10:35.63 bitrate=N/A speed=19.3x    frame=15484 fps=462 q=-0.0 size=N/A time=00:10:45.81 bitrate=N/A speed=19.3x    frame=15718 fps=462 q=-0.0 size=N/A time=00:10:55.57 bitrate=N/A speed=19.3x    frame=15948 fps=462 q=-0.0 size=N/A time=00:11:05.16 bitrate=N/A speed=19.3x    frame=16188 fps=462 q=-0.0 size=N/A time=00:11:15.17 bitrate=N/A speed=19.3x    frame=16440 fps=462 q=-0.0 size=N/A time=00:11:25.68 bitrate=N/A speed=19.3x    frame=16697 fps=463 q=-0.0 size=N/A time=00:11:36.40 bitrate=N/A speed=19.3x    frame=16951 fps=463 q=-0.0 size=N/A time=00:11:46.99 bitrate=N/A speed=19.3x    frame=17224 fps=464 q=-0.0 size=N/A time=00:11:58.38 bitrate=N/A speed=19.3x    frame=17472 fps=464 q=-0.0 size=N/A time=00:12:08.72 bitrate=N/A speed=19.4x    frame=17726 fps=465 q=-0.0 size=N/A time=00:12:19.32 bitrate=N/A speed=19.4x    frame=18002 fps=466 q=-0.0 size=N/A time=00:12:30.83 bitrate=N/A speed=19.4x    frame=18260 fps=466 q=-0.0 size=N/A time=00:12:41.59 bitrate=N/A speed=19.4x    frame=18519 fps=466 q=-0.0 size=N/A time=00:12:52.39 bitrate=N/A speed=19.5x    frame=18785 fps=467 q=-0.0 size=N/A time=00:13:03.49 bitrate=N/A speed=19.5x    frame=19044 fps=467 q=-0.0 size=N/A time=00:13:14.29 bitrate=N/A speed=19.5x    frame=19317 fps=468 q=-0.0 size=N/A time=00:13:25.67 bitrate=N/A speed=19.5x    frame=19557 fps=468 q=-0.0 size=N/A time=00:13:35.68 bitrate=N/A speed=19.5x    frame=19769 fps=468 q=-0.0 size=N/A time=00:13:44.53 bitrate=N/A speed=19.5x    frame=20025 fps=468 q=-0.0 size=N/A time=00:13:55.20 bitrate=N/A speed=19.5x    frame=20283 fps=468 q=-0.0 size=N/A time=00:14:05.97 bitrate=N/A speed=19.5x    frame=20552 fps=469 q=-0.0 size=N/A time=00:14:17.18 bitrate=N/A speed=19.6x    frame=20819 fps=470 q=-0.0 size=N/A time=00:14:28.32 bitrate=N/A speed=19.6x    frame=21073 fps=470 q=-0.0 size=N/A time=00:14:38.91 bitrate=N/A speed=19.6x    frame=21335 fps=470 q=-0.0 size=N/A time=00:14:49.84 bitrate=N/A speed=19.6x    frame=21597 fps=471 q=-0.0 size=N/A time=00:15:00.77 bitrate=N/A speed=19.6x    frame=21853 fps=471 q=-0.0 size=N/A time=00:15:11.45 bitrate=N/A speed=19.6x    frame=22117 fps=471 q=-0.0 size=N/A time=00:15:22.46 bitrate=N/A speed=19.7x    frame=22385 fps=472 q=-0.0 size=N/A time=00:15:33.64 bitrate=N/A speed=19.7x    frame=22641 fps=472 q=-0.0 size=N/A time=00:15:44.31 bitrate=N/A speed=19.7x    frame=22895 fps=472 q=-0.0 size=N/A time=00:15:54.91 bitrate=N/A speed=19.7x    frame=23159 fps=473 q=-0.0 size=N/A time=00:16:05.92 bitrate=N/A speed=19.7x    frame=23415 fps=473 q=-0.0 size=N/A time=00:16:16.60 bitrate=N/A speed=19.7x    frame=23660 fps=473 q=-0.0 size=N/A time=00:16:26.81 bitrate=N/A speed=19.7x    frame=23922 fps=473 q=-0.0 size=N/A time=00:16:37.74 bitrate=N/A speed=19.7x    frame=24155 fps=473 q=-0.0 size=N/A time=00:16:47.46 bitrate=N/A speed=19.7x    frame=24376 fps=473 q=-0.0 size=N/A time=00:16:56.68 bitrate=N/A speed=19.7x    frame=24584 fps=472 q=-0.0 size=N/A time=00:17:05.35 bitrate=N/A speed=19.7x    frame=24821 fps=472 q=-0.0 size=N/A time=00:17:15.24 bitrate=N/A speed=19.7x    frame=25079 fps=472 q=-0.0 size=N/A time=00:17:26.00 bitrate=N/A speed=19.7x    frame=25334 fps=472 q=-0.0 size=N/A time=00:17:36.63 bitrate=N/A speed=19.7x    frame=25603 fps=473 q=-0.0 size=N/A time=00:17:47.85 bitrate=N/A speed=19.7x    frame=25883 fps=474 q=-0.0 size=N/A time=00:17:59.53 bitrate=N/A speed=19.8x    frame=26144 fps=474 q=-0.0 size=N/A time=00:18:10.42 bitrate=N/A speed=19.8x    frame=26398 fps=474 q=-0.0 size=N/A time=00:18:21.01 bitrate=N/A speed=19.8x    frame=26676 fps=475 q=-0.0 size=N/A time=00:18:32.61 bitrate=N/A speed=19.8x    frame=26936 fps=475 q=-0.0 size=N/A time=00:18:43.45 bitrate=N/A speed=19.8x    frame=27190 fps=475 q=-0.0 size=N/A time=00:18:54.04 bitrate=N/A speed=19.8x    frame=27425 fps=475 q=-0.0 size=N/A time=00:19:03.85 bitrate=N/A speed=19.8x    frame=27650 fps=475 q=-0.0 size=N/A time=00:19:13.23 bitrate=N/A speed=19.8x    frame=27878 fps=474 q=-0.0 size=N/A time=00:19:22.74 bitrate=N/A speed=19.8x    frame=28137 fps=475 q=-0.0 size=N/A time=00:19:33.54 bitrate=N/A speed=19.8x    frame=28404 fps=475 q=-0.0 size=N/A time=00:19:44.68 bitrate=N/A speed=19.8x    frame=28641 fps=475 q=-0.0 size=N/A time=00:19:54.56 bitrate=N/A speed=19.8x    frame=28869 fps=474 q=-0.0 size=N/A time=00:20:04.07 bitrate=N/A speed=19.8x    frame=29125 fps=475 q=-0.0 size=N/A time=00:20:14.75 bitrate=N/A speed=19.8x    frame=29376 fps=475 q=-0.0 size=N/A time=00:20:25.22 bitrate=N/A speed=19.8x    frame=29645 fps=475 q=-0.0 size=N/A time=00:20:36.44 bitrate=N/A speed=19.8x    frame=29902 fps=475 q=-0.0 size=N/A time=00:20:47.16 bitrate=N/A speed=19.8x    frame=30170 fps=476 q=-0.0 size=N/A time=00:20:58.34 bitrate=N/A speed=19.8x    frame=30398 fps=475 q=-0.0 size=N/A time=00:21:07.84 bitrate=N/A speed=19.8x    frame=30635 fps=475 q=-0.0 size=N/A time=00:21:17.73 bitrate=N/A speed=19.8x    frame=30833 fps=475 q=-0.0 size=N/A time=00:21:25.99 bitrate=N/A speed=19.8x    frame=31093 fps=475 q=-0.0 size=N/A time=00:21:36.83 bitrate=N/A speed=19.8x    frame=31345 fps=475 q=-0.0 size=N/A time=00:21:47.34 bitrate=N/A speed=19.8x    frame=31596 fps=475 q=-0.0 size=N/A time=00:21:57.81 bitrate=N/A speed=19.8x    frame=31841 fps=475 q=-0.0 size=N/A time=00:22:08.03 bitrate=N/A speed=19.8x    frame=32084 fps=475 q=-0.0 size=N/A time=00:22:18.17 bitrate=N/A speed=19.8x    frame=32331 fps=475 q=-0.0 size=N/A time=00:22:28.47 bitrate=N/A speed=19.8x    frame=32578 fps=475 q=-0.0 size=N/A time=00:22:38.77 bitrate=N/A speed=19.8x    frame=32801 fps=475 q=-0.0 size=N/A time=00:22:48.07 bitrate=N/A speed=19.8x    frame=33009 fps=474 q=-0.0 size=N/A time=00:22:56.75 bitrate=N/A speed=19.8x    frame=33185 fps=473 q=-0.0 size=N/A time=00:23:04.09 bitrate=N/A speed=19.7x    frame=33402 fps=473 q=-0.0 size=N/A time=00:23:13.14 bitrate=N/A speed=19.7x    frame=33631 fps=473 q=-0.0 size=N/A time=00:23:22.69 bitrate=N/A speed=19.7x    frame=33821 fps=472 q=-0.0 size=N/A time=00:23:30.61 bitrate=N/A speed=19.7x    frame=34009 fps=471 q=-0.0 size=N/A time=00:23:38.45 bitrate=N/A speed=19.6x    frame=34248 fps=471 q=-0.0 size=N/A time=00:23:48.42 bitrate=N/A speed=19.6x    [Parsed_psnr_10 @ 000001b702ef70c0] PSNR y:47.698468 u:50.281868 v:50.087040 average:48.379991 min:30.511765 max:inf
[out#0/null @ 000001b77eebc040] video:14827KiB audio:269856KiB subtitle:0KiB other streams:0KiB global headers:0KiB muxing overhead: unknown
frame=34506 fps=471 q=-0.0 Lsize=N/A time=00:23:59.18 bitrate=N/A speed=19.7x    
